RedHatText-Italic.ufo
<glyph name="dollar" format="2">
  <advance width="538"/>
  <unicode hex="0024"/>
  <outline>
    <contour>
      <point x="175" y="-75" type="line"/>
      <point x="223" y="-75" type="line"/>
      <point x="243" y="20" type="line"/>
      <point x="250" y="20" type="line" smooth="yes"/>
      <point x="390" y="20"/>
      <point x="485" y="101"/>
      <point x="485" y="222" type="curve"/>
      <point x="485" y="289"/>
      <point x="445" y="335"/>
      <point x="356" y="370" type="curve" smooth="yes"/>
      <point x="320" y="383" type="line"/>
      <point x="369" y="615" type="line"/>
      <point x="415" y="604"/>
      <point x="459" y="578"/>
      <point x="497" y="539" type="curve"/>
      <point x="543" y="587" type="line"/>
      <point x="496" y="633"/>
      <point x="440" y="664"/>
      <point x="382" y="676" type="curve"/>
      <point x="400" y="759" type="line"/>
      <point x="352" y="759" type="line"/>
      <point x="335" y="681" type="line"/>
      <point x="329" y="681" type="line" smooth="yes"/>
      <point x="189" y="681"/>
      <point x="102" y="609"/>
      <point x="102" y="493" type="curve"/>
      <point x="102" y="430"/>
      <point x="145" y="375"/>
      <point x="216" y="347" type="curve" smooth="yes"/>
      <point x="261" y="331" type="line"/>
      <point x="209" y="86" type="line"/>
      <point x="158" y="96"/>
      <point x="110" y="123"/>
      <point x="63" y="167" type="curve"/>
      <point x="21" y="117" type="line"/>
      <point x="74" y="67"/>
      <point x="132" y="36"/>
      <point x="196" y="25" type="curve"/>
    </contour>
    <contour>
      <point x="243" y="408" type="line" smooth="yes"/>
      <point x="195" y="428"/>
      <point x="169" y="460"/>
      <point x="169" y="502" type="curve" smooth="yes"/>
      <point x="169" y="575"/>
      <point x="227" y="621"/>
      <point x="319" y="621" type="curve" smooth="yes"/>
      <point x="323" y="621" type="line"/>
      <point x="275" y="396" type="line"/>
    </contour>
    <contour>
      <point x="327" y="309" type="line" smooth="yes"/>
      <point x="390" y="284"/>
      <point x="418" y="254"/>
      <point x="418" y="210" type="curve"/>
      <point x="418" y="135"/>
      <point x="352" y="83"/>
      <point x="256" y="82" type="curve"/>
      <point x="306" y="317" type="line"/>
    </contour>
  </outline>
</glyph>
<glyph name="ampersand" format="2">
  <advance width="656"/>
  <unicode hex="0026"/>
  <outline>
    <contour>
      <point x="596" y="39" type="line"/>
      <point x="567" y="64"/>
      <point x="537" y="93"/>
      <point x="507" y="124" type="curve"/>
      <point x="559" y="181"/>
      <point x="602" y="251"/>
      <point x="637" y="335" type="curve"/>
      <point x="572" y="353" type="line"/>
      <point x="545" y="282"/>
      <point x="508" y="220"/>
      <point x="465" y="170" type="curve"/>
      <point x="411" y="233"/>
      <point x="358" y="303"/>
      <point x="311" y="376" type="curve"/>
      <point x="367" y="404" type="line" smooth="yes"/>
      <point x="470" y="455"/>
      <point x="513" y="509"/>
      <point x="513" y="582" type="curve" smooth="yes"/>
      <point x="513" y="656"/>
      <point x="453" y="708"/>
      <point x="367" y="708" type="curve" smooth="yes"/>
      <point x="263" y="708"/>
      <point x="185" y="630"/>
      <point x="185" y="526" type="curve"/>
      <point x="185" y="484"/>
      <point x="195" y="445"/>
      <point x="221" y="398" type="curve"/>
      <point x="184" y="380" type="line" smooth="yes"/>
      <point x="70" y="323"/>
      <point x="21" y="261"/>
      <point x="21" y="171" type="curve"/>
      <point x="21" y="63"/>
      <point x="110" y="-9"/>
      <point x="242" y="-9" type="curve" smooth="yes"/>
      <point x="321" y="-9"/>
      <point x="396" y="19"/>
      <point x="458" y="73" type="curve"/>
      <point x="488" y="42"/>
      <point x="518" y="13"/>
      <point x="547" y="-11" type="curve"/>
    </contour>
    <contour>
      <point x="253" y="531" type="curve"/>
      <point x="253" y="600"/>
      <point x="299" y="650"/>
      <point x="362" y="650" type="curve" smooth="yes"/>
      <point x="411" y="650"/>
      <point x="443" y="619"/>
      <point x="443" y="573" type="curve" smooth="yes"/>
      <point x="443" y="525"/>
      <point x="413" y="489"/>
      <point x="346" y="456" type="curve" smooth="yes"/>
      <point x="285" y="426" type="line"/>
      <point x="262" y="468"/>
      <point x="253" y="498"/>
    </contour>
    <contour>
      <point x="92" y="184" type="curve"/>
      <point x="92" y="243"/>
      <point x="131" y="291"/>
      <point x="215" y="331" type="curve" smooth="yes"/>
      <point x="248" y="347" type="line"/>
      <point x="299" y="266"/>
      <point x="357" y="187"/>
      <point x="417" y="118" type="curve"/>
      <point x="367" y="76"/>
      <point x="309" y="53"/>
      <point x="249" y="53" type="curve" smooth="yes"/>
      <point x="154" y="53"/>
      <point x="92" y="105"/>
    </contour>
  </outline>
</glyph>
<glyph name="zero" format="2">
  <advance width="654"/>
  <unicode hex="0030"/>
  <outline>
    <contour>
      <point x="302" y="-9" type="curve" smooth="yes"/>
      <point x="477" y="-9"/>
      <point x="625" y="196"/>
      <point x="625" y="437" type="curve"/>
      <point x="625" y="602"/>
      <point x="534" y="709"/>
      <point x="394" y="709" type="curve" smooth="yes"/>
      <point x="220" y="709"/>
      <point x="71" y="503"/>
      <point x="71" y="263" type="curve"/>
      <point x="71" y="98"/>
      <point x="162" y="-9"/>
    </contour>
    <contour>
      <point x="311" y="55" type="curve" smooth="yes"/>
      <point x="207" y="55"/>
      <point x="143" y="134"/>
      <point x="143" y="262" type="curve"/>
      <point x="143" y="468"/>
      <point x="255" y="645"/>
      <point x="385" y="645" type="curve" smooth="yes"/>
      <point x="490" y="645"/>
      <point x="553" y="567"/>
      <point x="553" y="438" type="curve"/>
      <point x="553" y="231"/>
      <point x="441" y="55"/>
    </contour>
  </outline>
</glyph>
<glyph name="six" format="2">
  <advance width="611"/>
  <unicode hex="0036"/>
  <outline>
    <contour>
      <point x="298" y="-6" type="curve"/>
      <point x="438" y="-6"/>
      <point x="554" y="106"/>
      <point x="554" y="242" type="curve" smooth="yes"/>
      <point x="554" y="355"/>
      <point x="468" y="438"/>
      <point x="349" y="438" type="curve"/>
      <point x="279" y="438"/>
      <point x="206" y="406"/>
      <point x="148" y="349" type="curve"/>
      <point x="179" y="517"/>
      <point x="293" y="643"/>
      <point x="427" y="643" type="curve"/>
      <point x="477" y="643"/>
      <point x="527" y="626"/>
      <point x="567" y="596" type="curve"/>
      <point x="614" y="649" type="line"/>
      <point x="564" y="687"/>
      <point x="502" y="707"/>
      <point x="435" y="707" type="curve"/>
      <point x="236" y="707"/>
      <point x="69" y="503"/>
      <point x="69" y="261" type="curve" smooth="yes"/>
      <point x="69" y="100"/>
      <point x="160" y="-6"/>
    </contour>
    <contour>
      <point x="139" y="256" type="curve" smooth="yes"/>
      <point x="139" y="269"/>
      <point x="140" y="282"/>
      <point x="140" y="295" type="curve"/>
      <point x="197" y="349"/>
      <point x="266" y="380"/>
      <point x="334" y="380" type="curve"/>
      <point x="419" y="380"/>
      <point x="483" y="317"/>
      <point x="483" y="233" type="curve" smooth="yes"/>
      <point x="483" y="138"/>
      <point x="402" y="57"/>
      <point x="303" y="57" type="curve"/>
      <point x="203" y="57"/>
      <point x="139" y="134"/>
    </contour>
  </outline>
</glyph>
<glyph name="eight" format="2">
  <advance width="602"/>
  <unicode hex="0038"/>
  <note>
Version created Tue Sep 18 15:49:42 2018
</note>
  <outline>
    <contour>
      <point x="274" y="-9" type="curve"/>
      <point x="420" y="-9"/>
      <point x="535" y="85"/>
      <point x="535" y="206" type="curve" smooth="yes"/>
      <point x="535" y="277"/>
      <point x="485" y="337"/>
      <point x="409" y="363" type="curve"/>
      <point x="506" y="384"/>
      <point x="578" y="457"/>
      <point x="578" y="541" type="curve" smooth="yes"/>
      <point x="578" y="639"/>
      <point x="492" y="710"/>
      <point x="375" y="710" type="curve"/>
      <point x="245" y="710"/>
      <point x="140" y="622"/>
      <point x="140" y="513" type="curve" smooth="yes"/>
      <point x="140" y="452"/>
      <point x="179" y="400"/>
      <point x="243" y="375" type="curve"/>
      <point x="129" y="358"/>
      <point x="43" y="271"/>
      <point x="43" y="173" type="curve" smooth="yes"/>
      <point x="43" y="67"/>
      <point x="138" y="-9"/>
    </contour>
    <contour>
      <point x="347" y="398" type="curve"/>
      <point x="267" y="398"/>
      <point x="208" y="448"/>
      <point x="208" y="515" type="curve"/>
      <point x="208" y="591"/>
      <point x="280" y="653"/>
      <point x="369" y="653" type="curve"/>
      <point x="448" y="653"/>
      <point x="509" y="602"/>
      <point x="509" y="536" type="curve"/>
      <point x="509" y="460"/>
      <point x="437" y="398"/>
    </contour>
    <contour>
      <point x="278" y="50" type="curve"/>
      <point x="183" y="50"/>
      <point x="114" y="107"/>
      <point x="114" y="184" type="curve"/>
      <point x="114" y="269"/>
      <point x="198" y="339"/>
      <point x="300" y="339" type="curve"/>
      <point x="395" y="339"/>
      <point x="466" y="282"/>
      <point x="466" y="206" type="curve"/>
      <point x="466" y="121"/>
      <point x="380" y="50"/>
    </contour>
  </outline>
</glyph>
<glyph name="less" format="2">
  <advance width="470"/>
  <unicode hex="003C"/>
  <outline>
    <contour>
      <point x="305" y="103" type="line"/>
      <point x="351" y="148" type="line"/>
      <point x="137" y="346" type="line"/>
      <point x="439" y="545" type="line"/>
      <point x="410" y="594" type="line"/>
      <point x="46" y="349" type="line"/>
    </contour>
  </outline>
</glyph>
<glyph name="K" format="2">
  <advance width="597"/>
  <unicode hex="004B"/>
  <anchor x="288" y="0" name="bottom"/>
  <outline>
    <contour>
      <point x="34" y="0" type="line"/>
      <point x="109" y="0" type="line"/>
      <point x="182" y="344" type="line"/>
      <point x="449" y="0" type="line"/>
      <point x="544" y="0" type="line"/>
      <point x="263" y="357" type="line"/>
      <point x="689" y="700" type="line"/>
      <point x="588" y="700" type="line"/>
      <point x="189" y="378" type="line"/>
      <point x="258" y="700" type="line"/>
      <point x="183" y="700" type="line"/>
    </contour>
  </outline>
</glyph>
<glyph name="Z" format="2">
  <advance width="593"/>
  <unicode hex="005A"/>
  <anchor x="367" y="700" name="top"/>
  <outline>
    <contour>
      <point x="-17" y="0" type="line"/>
      <point x="507" y="0" type="line"/>
      <point x="522" y="67" type="line"/>
      <point x="97" y="65" type="line"/>
      <point x="635" y="646" type="line"/>
      <point x="648" y="700" type="line"/>
      <point x="134" y="700" type="line"/>
      <point x="120" y="633" type="line"/>
      <point x="533" y="635" type="line"/>
      <point x="-5" y="54" type="line"/>
    </contour>
  </outline>
</glyph>
<glyph name="g" format="2">
  <advance width="565"/>
  <unicode hex="0067"/>
  <note>
Version created Sun Jan 13 16:53:00 2019
</note>
  <anchor x="323" y="488" name="top"/>
  <outline>
    <contour>
      <point x="246" y="-6" type="curve" smooth="yes"/>
      <point x="298" y="-6"/>
      <point x="344" y="13"/>
      <point x="382" y="48" type="curve"/>
      <point x="363" y="-43" type="line" smooth="yes"/>
      <point x="348" y="-113"/>
      <point x="300" y="-152"/>
      <point x="228" y="-152" type="curve" smooth="yes"/>
      <point x="173" y="-152"/>
      <point x="118" y="-132"/>
      <point x="61" y="-90" type="curve"/>
      <point x="23" y="-143" type="line"/>
      <point x="79" y="-187"/>
      <point x="161" y="-216"/>
      <point x="232" y="-216" type="curve" smooth="yes"/>
      <point x="338" y="-216"/>
      <point x="409" y="-157"/>
      <point x="432" y="-49" type="curve" smooth="yes"/>
      <point x="544" y="488" type="line"/>
      <point x="473" y="488" type="line"/>
      <point x="458" y="415" type="line"/>
      <point x="424" y="465"/>
      <point x="369" y="493"/>
      <point x="303" y="493" type="curve" smooth="yes"/>
      <point x="165" y="493"/>
      <point x="51" y="367"/>
      <point x="51" y="214" type="curve" smooth="yes"/>
      <point x="51" y="88"/>
      <point x="133" y="-6"/>
    </contour>
    <contour>
      <point x="122" y="220" type="curve" smooth="yes"/>
      <point x="122" y="337"/>
      <point x="206" y="429"/>
      <point x="312" y="429" type="curve" smooth="yes"/>
      <point x="367" y="429"/>
      <point x="419" y="401"/>
      <point x="446" y="357" type="curve"/>
      <point x="394" y="105" type="line"/>
      <point x="359" y="73"/>
      <point x="316" y="56"/>
      <point x="271" y="56" type="curve" smooth="yes"/>
      <point x="183" y="56"/>
      <point x="122" y="123"/>
    </contour>
  </outline>
</glyph>
<glyph name="j" format="2">
  <advance width="220"/>
  <unicode hex="006A"/>
  <outline>
    <contour>
      <point x="189" y="608" type="curve" smooth="yes"/>
      <point x="220" y="608"/>
      <point x="246" y="635"/>
      <point x="246" y="666" type="curve" smooth="yes"/>
      <point x="246" y="692"/>
      <point x="226" y="713"/>
      <point x="200" y="713" type="curve" smooth="yes"/>
      <point x="170" y="713"/>
      <point x="143" y="685"/>
      <point x="143" y="655" type="curve" smooth="yes"/>
      <point x="143" y="628"/>
      <point x="162" y="608"/>
    </contour>
    <contour>
      <point x="-62" y="-212" type="curve" smooth="yes"/>
      <point x="9" y="-212"/>
      <point x="59" y="-169"/>
      <point x="74" y="-93" type="curve" smooth="yes"/>
      <point x="200" y="488" type="line"/>
      <point x="128" y="488" type="line"/>
      <point x="5" y="-86" type="line" smooth="yes"/>
      <point x="-5" y="-130"/>
      <point x="-24" y="-147"/>
      <point x="-60" y="-147" type="curve" smooth="yes"/>
      <point x="-78" y="-147"/>
      <point x="-90" y="-145"/>
      <point x="-100" y="-141" type="curve"/>
      <point x="-114" y="-204" type="line"/>
      <point x="-101" y="-209"/>
      <point x="-80" y="-212"/>
    </contour>
  </outline>
</glyph>
<glyph name="l" format="2">
  <advance width="220"/>
  <unicode hex="006C"/>
  <anchor x="203" y="700" name="top"/>
  <anchor x="57" y="0" name="bottom"/>
  <outline>
    <contour>
      <point x="245" y="730" type="line"/>
      <point x="171" y="715" type="line"/>
      <point x="21" y="0" type="line"/>
      <point x="93" y="0" type="line"/>
    </contour>
  </outline>
</glyph>
<glyph name="n" format="2">
  <advance width="542"/>
  <unicode hex="006E"/>
  <anchor x="320" y="488" name="top"/>
  <anchor x="216" y="0" name="bottom"/>
  <outline>
    <contour>
      <point x="21" y="0" type="line"/>
      <point x="93" y="0" type="line"/>
      <point x="173" y="367" type="line"/>
      <point x="210" y="411"/>
      <point x="256" y="435"/>
      <point x="306" y="435" type="curve" smooth="yes"/>
      <point x="387" y="435"/>
      <point x="428" y="375"/>
      <point x="408" y="285" type="curve" smooth="yes"/>
      <point x="346" y="0" type="line"/>
      <point x="418" y="0" type="line"/>
      <point x="482" y="300" type="line" smooth="yes"/>
      <point x="507" y="413"/>
      <point x="447" y="495"/>
      <point x="337" y="495" type="curve" smooth="yes"/>
      <point x="279" y="495"/>
      <point x="227" y="469"/>
      <point x="184" y="417" type="curve"/>
      <point x="199" y="488" type="line"/>
      <point x="128" y="488" type="line"/>
    </contour>
  </outline>
</glyph>
<glyph name="v" format="2">
  <advance width="491"/>
  <unicode hex="0076"/>
  <outline>
    <contour>
      <point x="156" y="0" type="line"/>
      <point x="224" y="0" type="line"/>
      <point x="528" y="488" type="line"/>
      <point x="448" y="488" type="line"/>
      <point x="210" y="91" type="line"/>
      <point x="143" y="488" type="line"/>
      <point x="68" y="488" type="line"/>
    </contour>
  </outline>
</glyph>
<glyph name="y" format="2">
  <advance width="489"/>
  <unicode hex="0079"/>
  <anchor x="286" y="488" name="top"/>
  <outline>
    <contour>
      <point x="107" y="-82" type="line" smooth="yes"/>
      <point x="83" y="-121"/>
      <point x="56" y="-139"/>
      <point x="17" y="-139" type="curve" smooth="yes"/>
      <point x="7" y="-139"/>
      <point x="-5" y="-137"/>
      <point x="-24" y="-133" type="curve"/>
      <point x="-37" y="-198" type="line"/>
      <point x="-13" y="-205"/>
      <point x="3" y="-208"/>
      <point x="18" y="-208" type="curve" smooth="yes"/>
      <point x="83" y="-208"/>
      <point x="128" y="-179"/>
      <point x="173" y="-106" type="curve" smooth="yes"/>
      <point x="526" y="488" type="line"/>
      <point x="445" y="488" type="line"/>
      <point x="207" y="84" type="line"/>
      <point x="144" y="488" type="line"/>
      <point x="68" y="488" type="line"/>
      <point x="152" y="-5" type="line"/>
    </contour>
  </outline>
</glyph>
<glyph name="sterling" format="2">
  <advance width="606"/>
  <unicode hex="00A3"/>
  <outline>
    <contour>
      <point x="159" y="31" type="curve" smooth="yes"/>
      <point x="337" y="-19" type="line" smooth="yes"/>
      <point x="429" y="-45"/>
      <point x="496" y="-26"/>
      <point x="553" y="44" type="curve"/>
      <point x="507" y="83" type="line"/>
      <point x="469" y="37"/>
      <point x="428" y="25"/>
      <point x="368" y="41" type="curve" smooth="yes"/>
      <point x="184" y="91" type="line" smooth="yes"/>
      <point x="182" y="92" type="line"/>
      <point x="212" y="114"/>
      <point x="230" y="155"/>
      <point x="232" y="206" type="curve" smooth="yes"/>
      <point x="237" y="312" type="line"/>
      <point x="420" y="312" type="line"/>
      <point x="433" y="369" type="line"/>
      <point x="239" y="369" type="line"/>
      <point x="243" y="458" type="line" smooth="yes"/>
      <point x="246" y="575"/>
      <point x="299" y="644"/>
      <point x="387" y="644" type="curve"/>
      <point x="476" y="644"/>
      <point x="525" y="595"/>
      <point x="530" y="499" type="curve"/>
      <point x="596" y="513" type="line"/>
      <point x="586" y="638"/>
      <point x="513" y="706"/>
      <point x="390" y="706" type="curve"/>
      <point x="261" y="706"/>
      <point x="177" y="605"/>
      <point x="174" y="447" type="curve" smooth="yes"/>
      <point x="170" y="369" type="line"/>
      <point x="79" y="369" type="line"/>
      <point x="66" y="312" type="line"/>
      <point x="168" y="312" type="line"/>
      <point x="162" y="192" type="line" smooth="yes"/>
      <point x="160" y="147"/>
      <point x="142" y="115"/>
      <point x="113" y="102" type="curve"/>
      <point x="56" y="102"/>
      <point x="8" y="76"/>
      <point x="-36" y="23" type="curve"/>
      <point x="10" y="-18" type="line"/>
      <point x="49" y="35"/>
      <point x="94" y="50"/>
    </contour>
  </outline>
</glyph>
<glyph name="yen" format="2">
  <advance width="642"/>
  <unicode hex="00A5"/>
  <outline>
    <contour>
      <point x="224" y="0" type="line"/>
      <point x="300" y="0" type="line"/>
      <point x="333" y="158" type="line"/>
      <point x="506" y="158" type="line"/>
      <point x="517" y="209" type="line"/>
      <point x="344" y="209" type="line"/>
      <point x="360" y="283" type="line"/>
      <point x="363" y="286" type="line"/>
      <point x="534" y="286" type="line"/>
      <point x="544" y="338" type="line"/>
      <point x="407" y="338" type="line"/>
      <point x="717" y="700" type="line"/>
      <point x="627" y="700" type="line"/>
      <point x="334" y="353" type="line"/>
      <point x="187" y="700" type="line"/>
      <point x="107" y="700" type="line"/>
      <point x="263" y="338" type="line"/>
      <point x="123" y="338" type="line"/>
      <point x="113" y="286" type="line"/>
      <point x="285" y="286" type="line"/>
      <point x="268" y="209" type="line"/>
      <point x="96" y="209" type="line"/>
      <point x="85" y="158" type="line"/>
      <point x="258" y="158" type="line"/>
    </contour>
  </outline>
</glyph>
<glyph name="uni00A6" format="2">
  <advance width="294"/>
  <unicode hex="00A6"/>
  <guideline x="136.50147073249548" y="247" angle="102.0" identifier="vqo1QWua4Z"/>
  <guideline x="136.50147073249548" y="247" angle="0" identifier="1av9a3dMxG"/>
  <outline>
    <contour>
      <point x="189" y="287" type="line"/>
      <point x="277" y="700" type="line"/>
      <point x="209" y="700" type="line"/>
      <point x="121" y="287" type="line"/>
    </contour>
    <contour>
      <point x="16" y="-206" type="line"/>
      <point x="84" y="-206" type="line"/>
      <point x="172" y="207" type="line"/>
      <point x="104" y="207" type="line"/>
    </contour>
  </outline>
</glyph>
<glyph name="section" format="2">
  <advance width="556"/>
  <unicode hex="00A7"/>
  <outline>
    <contour>
      <point x="403" y="94" type="curve" smooth="yes"/>
      <point x="403" y="127"/>
      <point x="392" y="155"/>
      <point x="368" y="178" type="curve"/>
      <point x="453" y="194"/>
      <point x="506" y="249"/>
      <point x="506" y="326" type="curve" smooth="yes"/>
      <point x="506" y="379"/>
      <point x="477" y="415"/>
      <point x="403" y="453" type="curve" smooth="yes"/>
      <point x="309" y="500" type="line" smooth="yes"/>
      <point x="271" y="519"/>
      <point x="254" y="542"/>
      <point x="254" y="573" type="curve" smooth="yes"/>
      <point x="254" y="622"/>
      <point x="291" y="654"/>
      <point x="347" y="654" type="curve" smooth="yes"/>
      <point x="393" y="654"/>
      <point x="442" y="634"/>
      <point x="496" y="593" type="curve"/>
      <point x="535" y="642" type="line"/>
      <point x="482" y="685"/>
      <point x="414" y="710"/>
      <point x="352" y="710" type="curve" smooth="yes"/>
      <point x="256" y="710"/>
      <point x="190" y="651"/>
      <point x="190" y="565" type="curve" smooth="yes"/>
      <point x="190" y="531"/>
      <point x="202" y="502"/>
      <point x="226" y="479" type="curve"/>
      <point x="141" y="463"/>
      <point x="87" y="408"/>
      <point x="87" y="334" type="curve" smooth="yes"/>
      <point x="87" y="280"/>
      <point x="116" y="244"/>
      <point x="190" y="206" type="curve" smooth="yes"/>
      <point x="284" y="159" type="line" smooth="yes"/>
      <point x="321" y="140"/>
      <point x="338" y="117"/>
      <point x="338" y="86" type="curve" smooth="yes"/>
      <point x="338" y="37"/>
      <point x="302" y="5"/>
      <point x="246" y="5" type="curve" smooth="yes"/>
      <point x="199" y="5"/>
      <point x="150" y="25"/>
      <point x="96" y="66" type="curve"/>
      <point x="57" y="17" type="line"/>
      <point x="110" y="-26"/>
      <point x="177" y="-51"/>
      <point x="241" y="-51" type="curve" smooth="yes"/>
      <point x="337" y="-51"/>
      <point x="403" y="8"/>
    </contour>
    <contour>
      <point x="218" y="264" type="line" smooth="yes"/>
      <point x="172" y="287"/>
      <point x="151" y="313"/>
      <point x="151" y="348" type="curve" smooth="yes"/>
      <point x="151" y="402"/>
      <point x="205" y="440"/>
      <point x="280" y="442" type="curve"/>
      <point x="375" y="396" type="line" smooth="yes"/>
      <point x="421" y="372"/>
      <point x="442" y="346"/>
      <point x="442" y="312" type="curve" smooth="yes"/>
      <point x="442" y="257"/>
      <point x="390" y="218"/>
      <point x="316" y="215" type="curve"/>
    </contour>
  </outline>
</glyph>
<glyph name="copyright" format="2">
  <advance width="784"/>
  <unicode hex="00A9"/>
  <outline>
    <contour>
      <point x="73" y="311" type="curve" smooth="yes"/>
      <point x="73" y="126"/>
      <point x="205" y="-9"/>
      <point x="384" y="-9" type="curve"/>
      <point x="585" y="-9"/>
      <point x="754" y="171"/>
      <point x="754" y="386" type="curve" smooth="yes"/>
      <point x="754" y="571"/>
      <point x="622" y="706"/>
      <point x="443" y="706" type="curve"/>
      <point x="242" y="706"/>
      <point x="73" y="526"/>
    </contour>
    <contour>
      <point x="709" y="381" type="curve"/>
      <point x="709" y="194"/>
      <point x="560" y="34"/>
      <point x="384" y="33" type="curve"/>
      <point x="232" y="33"/>
      <point x="119" y="153"/>
      <point x="119" y="315" type="curve"/>
      <point x="119" y="503"/>
      <point x="266" y="663"/>
      <point x="440" y="663" type="curve"/>
      <point x="595" y="663"/>
      <point x="709" y="544"/>
    </contour>
    <contour>
      <point x="249" y="328" type="curve" smooth="yes"/>
      <point x="249" y="235"/>
      <point x="314" y="167"/>
      <point x="401" y="167" type="curve" smooth="yes"/>
      <point x="444" y="167"/>
      <point x="487" y="183"/>
      <point x="522" y="212" type="curve"/>
      <point x="499" y="254" type="line"/>
      <point x="468" y="231"/>
      <point x="438" y="219"/>
      <point x="409" y="219" type="curve" smooth="yes"/>
      <point x="348" y="219"/>
      <point x="303" y="267"/>
      <point x="303" y="332" type="curve" smooth="yes"/>
      <point x="303" y="412"/>
      <point x="366" y="482"/>
      <point x="438" y="482" type="curve" smooth="yes"/>
      <point x="476" y="482"/>
      <point x="513" y="461"/>
      <point x="535" y="426" type="curve"/>
      <point x="577" y="462" type="line"/>
      <point x="550" y="506"/>
      <point x="497" y="533"/>
      <point x="441" y="533" type="curve"/>
      <point x="338" y="533"/>
      <point x="249" y="438"/>
    </contour>
  </outline>
</glyph>
<glyph name="uni00AC" format="2">
  <advance width="567"/>
  <unicode hex="00AC"/>
  <outline>
    <contour>
      <point x="73" y="314" type="line"/>
      <point x="59" y="248" type="line"/>
      <point x="442" y="248" type="line"/>
      <point x="389" y="0" type="line"/>
      <point x="455" y="0" type="line"/>
      <point x="522" y="314" type="line"/>
    </contour>
  </outline>
</glyph>
<glyph name="degree" format="2">
  <advance width="393"/>
  <unicode hex="00B0"/>
  <outline>
    <contour>
      <point x="249" y="423" type="curve" smooth="yes"/>
      <point x="333" y="423"/>
      <point x="404" y="495"/>
      <point x="404" y="579" type="curve" smooth="yes"/>
      <point x="404" y="653"/>
      <point x="351" y="707"/>
      <point x="278" y="707" type="curve" smooth="yes"/>
      <point x="194" y="707"/>
      <point x="123" y="635"/>
      <point x="123" y="551" type="curve" smooth="yes"/>
      <point x="123" y="477"/>
      <point x="176" y="423"/>
    </contour>
    <contour>
      <point x="252" y="471" type="curve" smooth="yes"/>
      <point x="207" y="471"/>
      <point x="173" y="506"/>
      <point x="173" y="556" type="curve"/>
      <point x="173" y="613"/>
      <point x="219" y="659"/>
      <point x="275" y="659" type="curve" smooth="yes"/>
      <point x="321" y="659"/>
      <point x="354" y="623"/>
      <point x="354" y="574" type="curve" smooth="yes"/>
      <point x="354" y="518"/>
      <point x="308" y="471"/>
    </contour>
  </outline>
</glyph>
<glyph name="acute" format="2">
  <advance width="513"/>
  <unicode hex="00B4"/>
  <anchor x="274" y="488" name="_top"/>
  <outline>
    <contour>
      <point x="382" y="706" type="line"/>
      <point x="247" y="584" type="line"/>
      <point x="317" y="584" type="line"/>
      <point x="483" y="706" type="line"/>
    </contour>
  </outline>
</glyph>
<glyph name="uni00B5" format="2">
  <advance width="569"/>
  <unicode hex="00B5"/>
  <outline>
    <contour>
      <point x="197" y="501" type="line"/>
      <point x="124" y="501" type="line"/>
      <point x="-26" y="-205" type="line"/>
      <point x="47" y="-205" type="line"/>
      <point x="97" y="27" type="line"/>
      <point x="124" y="3"/>
      <point x="163" y="-10"/>
      <point x="210" y="-10" type="curve"/>
      <point x="275" y="-10"/>
      <point x="333" y="13"/>
      <point x="381" y="58" type="curve"/>
      <point x="369" y="0" type="line"/>
      <point x="443" y="0" type="line"/>
      <point x="549" y="501" type="line"/>
      <point x="475" y="501" type="line"/>
      <point x="397" y="133" type="line"/>
      <point x="357" y="83"/>
      <point x="303" y="55"/>
      <point x="243" y="55" type="curve" smooth="yes"/>
      <point x="157" y="55"/>
      <point x="114" y="110"/>
      <point x="133" y="199" type="curve"/>
    </contour>
  </outline>
</glyph>
<glyph name="AE" format="2">
  <advance width="900"/>
  <unicode hex="00C6"/>
  <outline>
    <contour>
      <point x="-44" y="0" type="line"/>
      <point x="37" y="0" type="line"/>
      <point x="166" y="220" type="line"/>
      <point x="471" y="220" type="line"/>
      <point x="505" y="0" type="line"/>
      <point x="799" y="0" type="line"/>
      <point x="813" y="68" type="line"/>
      <point x="569" y="68" type="line"/>
      <point x="530" y="320" type="line"/>
      <point x="736" y="320" type="line"/>
      <point x="751" y="387" type="line"/>
      <point x="519" y="387" type="line"/>
      <point x="481" y="632" type="line"/>
      <point x="933" y="632" type="line"/>
      <point x="947" y="700" type="line"/>
      <point x="373" y="700" type="line"/>
    </contour>
    <contour>
      <point x="201" y="281" type="line"/>
      <point x="406" y="631" type="line"/>
      <point x="461" y="281" type="line"/>
    </contour>
  </outline>
</glyph>
<glyph name="multiply" format="2">
  <advance width="537"/>
  <unicode hex="00D7"/>
  <outline>
    <contour>
      <point x="107" y="161" type="line"/>
      <point x="284" y="318" type="line"/>
      <point x="394" y="162" type="line"/>
      <point x="440" y="199" type="line"/>
      <point x="328" y="357" type="line"/>
      <point x="506" y="514" type="line"/>
      <point x="474" y="556" type="line"/>
      <point x="298" y="400" type="line"/>
      <point x="187" y="556" type="line"/>
      <point x="142" y="519" type="line"/>
      <point x="254" y="361" type="line"/>
      <point x="75" y="203" type="line"/>
    </contour>
  </outline>
</glyph>
<glyph name="ae" format="2">
  <advance width="851"/>
  <unicode hex="00E6"/>
  <outline>
    <contour>
      <point x="201" y="-7" type="curve" smooth="yes"/>
      <point x="275" y="-7"/>
      <point x="340" y="21"/>
      <point x="401" y="80" type="curve"/>
      <point x="440" y="24"/>
      <point x="505" y="-9"/>
      <point x="584" y="-9" type="curve" smooth="yes"/>
      <point x="644" y="-9"/>
      <point x="697" y="7"/>
      <point x="753" y="45" type="curve"/>
      <point x="715" y="97" type="line"/>
      <point x="682" y="70"/>
      <point x="633" y="54"/>
      <point x="587" y="54" type="curve" smooth="yes"/>
      <point x="498" y="54"/>
      <point x="431" y="124"/>
      <point x="431" y="218" type="curve" smooth="yes"/>
      <point x="431" y="228" type="line"/>
      <point x="805" y="228" type="line"/>
      <point x="807" y="247"/>
      <point x="808" y="263"/>
      <point x="808" y="281" type="curve" smooth="yes"/>
      <point x="808" y="406"/>
      <point x="727" y="496"/>
      <point x="613" y="496" type="curve" smooth="yes"/>
      <point x="543" y="496"/>
      <point x="479" y="465"/>
      <point x="432" y="410" type="curve"/>
      <point x="411" y="464"/>
      <point x="357" y="495"/>
      <point x="276" y="495" type="curve" smooth="yes"/>
      <point x="223" y="495"/>
      <point x="168" y="482"/>
      <point x="102" y="455" type="curve"/>
      <point x="122" y="398" type="line"/>
      <point x="179" y="424"/>
      <point x="222" y="435"/>
      <point x="262" y="435" type="curve" smooth="yes"/>
      <point x="353.0" y="435.0"/>
      <point x="388" y="390"/>
      <point x="372" y="300" type="curve" smooth="yes"/>
      <point x="370" y="289" type="line" smooth="yes"/>
      <point x="368" y="276"/>
      <point x="365" y="264"/>
      <point x="363" y="251" type="curve"/>
      <point x="324" y="274"/>
      <point x="274" y="287"/>
      <point x="220" y="287" type="curve" smooth="yes"/>
      <point x="110" y="287"/>
      <point x="36" y="224"/>
      <point x="36" y="131" type="curve" smooth="yes"/>
      <point x="36" y="48"/>
      <point x="102" y="-7"/>
    </contour>
    <contour>
      <point x="608" y="432" type="curve" smooth="yes"/>
      <point x="685" y="432"/>
      <point x="742" y="365"/>
      <point x="740" y="280" type="curve"/>
      <point x="438" y="280" type="line"/>
      <point x="460" y="369"/>
      <point x="527" y="432"/>
    </contour>
    <contour>
      <point x="104" y="138" type="curve" smooth="yes"/>
      <point x="104" y="194"/>
      <point x="155" y="233"/>
      <point x="227" y="233" type="curve" smooth="yes"/>
      <point x="281" y="233"/>
      <point x="324" y="222"/>
      <point x="362" y="198" type="curve"/>
      <point x="363" y="170"/>
      <point x="369" y="143"/>
      <point x="379" y="120" type="curve"/>
      <point x="327" y="72"/>
      <point x="274" y="48"/>
      <point x="218" y="48" type="curve" smooth="yes"/>
      <point x="146" y="48"/>
      <point x="104" y="81"/>
    </contour>
  </outline>
</glyph>
<glyph name="eth" format="2">
  <advance width="578"/>
  <unicode hex="00F0"/>
  <outline>
    <contour>
      <point x="316" y="527" type="line"/>
      <point x="423" y="580" type="line"/>
      <point x="464" y="519"/>
      <point x="483" y="441"/>
      <point x="479" y="351" type="curve"/>
      <point x="458" y="426"/>
      <point x="387" y="479"/>
      <point x="297" y="478" type="curve" smooth="yes"/>
      <point x="160" y="479"/>
      <point x="52" y="360"/>
      <point x="52" y="208" type="curve" smooth="yes"/>
      <point x="52" y="81"/>
      <point x="138" y="-9"/>
      <point x="260" y="-9" type="curve" smooth="yes"/>
      <point x="425" y="-9"/>
      <point x="542" y="153"/>
      <point x="542" y="385" type="curve" smooth="yes"/>
      <point x="542" y="473"/>
      <point x="521" y="548"/>
      <point x="481" y="608" type="curve"/>
      <point x="582" y="658" type="line"/>
      <point x="565" y="703" type="line"/>
      <point x="451" y="647" type="line"/>
      <point x="421" y="680"/>
      <point x="385" y="708"/>
      <point x="341" y="729" type="curve"/>
      <point x="302" y="679" type="line"/>
      <point x="337" y="664"/>
      <point x="366" y="643"/>
      <point x="391" y="618" type="curve"/>
      <point x="298" y="573" type="line"/>
    </contour>
    <contour>
      <point x="264" y="55" type="curve" smooth="yes"/>
      <point x="180" y="55"/>
      <point x="120" y="120"/>
      <point x="120" y="213" type="curve" smooth="yes"/>
      <point x="120" y="324"/>
      <point x="204" y="419"/>
      <point x="304" y="419" type="curve" smooth="yes"/>
      <point x="388" y="419"/>
      <point x="450" y="352"/>
      <point x="450" y="261" type="curve" smooth="yes"/>
      <point x="450" y="152"/>
      <point x="364" y="55"/>
    </contour>
  </outline>
</glyph>
<glyph name="hcircumflex" format="2">
  <advance width="542"/>
  <unicode hex="0125"/>
  <outline>
    <contour>
      <point x="317" y="791" type="line"/>
      <point x="373" y="791" type="line"/>
      <point x="286" y="918" type="line"/>
      <point x="209" y="918" type="line"/>
      <point x="72" y="791" type="line"/>
      <point x="133" y="791" type="line"/>
      <point x="243" y="879" type="line"/>
    </contour>
    <contour>
      <point x="21" y="0" type="line"/>
      <point x="93" y="0" type="line"/>
      <point x="168" y="362" type="line"/>
      <point x="203" y="408"/>
      <point x="253" y="435"/>
      <point x="306" y="435" type="curve" smooth="yes"/>
      <point x="387" y="435"/>
      <point x="428" y="375"/>
      <point x="408" y="285" type="curve"/>
      <point x="346" y="0" type="line"/>
      <point x="418" y="0" type="line"/>
      <point x="482" y="300" type="line" smooth="yes"/>
      <point x="507" y="412"/>
      <point x="446" y="495"/>
      <point x="337" y="495" type="curve"/>
      <point x="277" y="495"/>
      <point x="224" y="467"/>
      <point x="179" y="411" type="curve"/>
      <point x="242" y="714" type="line"/>
      <point x="170" y="714" type="line"/>
    </contour>
  </outline>
</glyph>
<glyph name="hbar" format="2">
  <advance width="547"/>
  <unicode hex="0127"/>
  <outline>
    <contour>
      <point x="27" y="0" type="line"/>
      <point x="99" y="0" type="line"/>
      <point x="174" y="361" type="line"/>
      <point x="209" y="408"/>
      <point x="259" y="435"/>
      <point x="312" y="435" type="curve" smooth="yes"/>
      <point x="393" y="435"/>
      <point x="434" y="375"/>
      <point x="414" y="285" type="curve" smooth="yes"/>
      <point x="352" y="0" type="line"/>
      <point x="424" y="0" type="line"/>
      <point x="488" y="300" type="line" smooth="yes"/>
      <point x="513" y="413"/>
      <point x="453" y="495"/>
      <point x="343" y="495" type="curve" smooth="yes"/>
      <point x="283" y="495"/>
      <point x="230" y="467"/>
      <point x="185" y="411" type="curve"/>
      <point x="218" y="573" type="line"/>
      <point x="363" y="573" type="line"/>
      <point x="375" y="623" type="line"/>
      <point x="229" y="623" type="line"/>
      <point x="251" y="730" type="line"/>
      <point x="176" y="715" type="line"/>
      <point x="157" y="623" type="line"/>
      <point x="101" y="623" type="line"/>
      <point x="89" y="573" type="line"/>
      <point x="146" y="573" type="line"/>
    </contour>
  </outline>
</glyph>
<glyph name="kgreenlandic" format="2">
  <advance width="478"/>
  <unicode hex="0138"/>
  <outline>
    <contour>
      <point x="21" y="0" type="line"/>
      <point x="93" y="0" type="line"/>
      <point x="143" y="230" type="line"/>
      <point x="321" y="0" type="line"/>
      <point x="408" y="0" type="line"/>
      <point x="213" y="247" type="line"/>
      <point x="521" y="488" type="line"/>
      <point x="425" y="488" type="line"/>
      <point x="152" y="270" type="line"/>
      <point x="199" y="488" type="line"/>
      <point x="128" y="488" type="line"/>
    </contour>
  </outline>
</glyph>
<glyph name="lacute" format="2">
  <advance width="220"/>
  <unicode hex="013A"/>
  <outline>
    <contour>
      <point x="311" y="917" type="line"/>
      <point x="176" y="795" type="line"/>
      <point x="246" y="795" type="line"/>
      <point x="412" y="917" type="line"/>
    </contour>
    <contour>
      <point x="21" y="0" type="line"/>
      <point x="93" y="0" type="line"/>
      <point x="241" y="714" type="line"/>
      <point x="170" y="714" type="line"/>
    </contour>
  </outline>
</glyph>
<glyph name="OE" format="2">
  <advance width="1043"/>
  <unicode hex="0152"/>
  <outline>
    <contour>
      <point x="378" y="0" type="curve" smooth="yes"/>
      <point x="941" y="0" type="line"/>
      <point x="955" y="68" type="line"/>
      <point x="564" y="68" type="line"/>
      <point x="645" y="125"/>
      <point x="704" y="217"/>
      <point x="721" y="320" type="curve"/>
      <point x="889" y="320" type="line"/>
      <point x="904" y="387" type="line"/>
      <point x="727" y="387" type="line"/>
      <point x="727" y="488"/>
      <point x="685" y="577"/>
      <point x="616" y="632" type="curve"/>
      <point x="1075" y="632" type="line"/>
      <point x="1090" y="700" type="line"/>
      <point x="447" y="700" type="line" smooth="yes"/>
      <point x="241" y="700"/>
      <point x="73" y="527"/>
      <point x="73" y="314" type="curve" smooth="yes"/>
      <point x="73" y="131"/>
      <point x="200" y="0"/>
    </contour>
    <contour>
      <point x="374" y="70" type="curve" smooth="yes"/>
      <point x="243" y="70"/>
      <point x="149" y="174"/>
      <point x="149" y="318" type="curve" smooth="yes"/>
      <point x="149" y="487"/>
      <point x="278" y="630"/>
      <point x="430" y="630" type="curve" smooth="yes"/>
      <point x="560" y="630"/>
      <point x="654" y="526"/>
      <point x="654" y="383" type="curve" smooth="yes"/>
      <point x="654" y="212"/>
      <point x="527" y="70"/>
    </contour>
  </outline>
</glyph>
<glyph name="circumflex" format="2">
  <advance width="513"/>
  <unicode hex="02C6"/>
  <anchor x="309" y="488" name="_top"/>
  <outline>
    <contour>
      <point x="424" y="579" type="line"/>
      <point x="480" y="579" type="line"/>
      <point x="393" y="706" type="line"/>
      <point x="316" y="706" type="line"/>
      <point x="179" y="579" type="line"/>
      <point x="240" y="579" type="line"/>
      <point x="350" y="667" type="line"/>
    </contour>
  </outline>
</glyph>
<glyph name="caron" format="2">
  <advance width="513"/>
  <unicode hex="02C7"/>
  <anchor x="308" y="488" name="_top"/>
  <outline>
    <contour>
      <point x="260" y="710" type="line"/>
      <point x="203" y="710" type="line"/>
      <point x="289" y="583" type="line"/>
      <point x="366" y="583" type="line"/>
      <point x="503" y="710" type="line"/>
      <point x="441" y="710" type="line"/>
      <point x="333" y="622" type="line"/>
    </contour>
  </outline>
</glyph>
<glyph name="ring" format="2">
  <advance width="513"/>
  <unicode hex="02DA"/>
  <anchor x="309" y="488" name="_top"/>
  <outline>
    <contour>
      <point x="336" y="572" type="curve" smooth="yes"/>
      <point x="401" y="572"/>
      <point x="457" y="630"/>
      <point x="457" y="696" type="curve" smooth="yes"/>
      <point x="457" y="753"/>
      <point x="416" y="794"/>
      <point x="357" y="794" type="curve" smooth="yes"/>
      <point x="293" y="794"/>
      <point x="237" y="736"/>
      <point x="237" y="670" type="curve" smooth="yes"/>
      <point x="237" y="613"/>
      <point x="278" y="572"/>
    </contour>
    <contour>
      <point x="338" y="612" type="curve" smooth="yes"/>
      <point x="304" y="612"/>
      <point x="278" y="638"/>
      <point x="278" y="673" type="curve"/>
      <point x="278" y="717"/>
      <point x="314" y="753"/>
      <point x="355" y="753" type="curve" smooth="yes"/>
      <point x="390" y="753"/>
      <point x="415" y="727"/>
      <point x="415" y="692" type="curve" smooth="yes"/>
      <point x="415" y="649"/>
      <point x="380" y="612"/>
    </contour>
  </outline>
</glyph>
<glyph name="ogonek" format="2">
  <advance width="513"/>
  <unicode hex="02DB"/>
  <anchor x="258" y="0" name="_bottom"/>
  <outline>
    <contour>
      <point x="258" y="0" type="curve"/>
      <point x="230" y="18" type="line"/>
      <point x="127" y="-36"/>
      <point x="76" y="-92"/>
      <point x="76" y="-154" type="curve"/>
      <point x="76" y="-201"/>
      <point x="114" y="-232"/>
      <point x="171" y="-232" type="curve"/>
      <point x="195" y="-232"/>
      <point x="219" y="-227"/>
      <point x="237" y="-218" type="curve"/>
      <point x="233" y="-178" type="line"/>
      <point x="220" y="-183"/>
      <point x="201" y="-187"/>
      <point x="187" y="-187" type="curve"/>
      <point x="152" y="-187"/>
      <point x="127" y="-168"/>
      <point x="127" y="-139" type="curve"/>
      <point x="127" y="-92"/>
      <point x="169" y="-48"/>
    </contour>
  </outline>
</glyph>
<glyph name="bullet" format="2">
  <advance width="336"/>
  <unicode hex="2022"/>
  <outline>
    <contour>
      <point x="179" y="254" type="curve" smooth="yes"/>
      <point x="236" y="254"/>
      <point x="287" y="306"/>
      <point x="287" y="367" type="curve" smooth="yes"/>
      <point x="287" y="416"/>
      <point x="250" y="454"/>
      <point x="201" y="454" type="curve" smooth="yes"/>
      <point x="142" y="454"/>
      <point x="92" y="402"/>
      <point x="92" y="342" type="curve" smooth="yes"/>
      <point x="92" y="292"/>
      <point x="130" y="254"/>
    </contour>
  </outline>
</glyph>
<glyph name="uni2085" format="2">
  <advance width="298"/>
  <unicode hex="2085"/>
  <outline>
    <contour>
      <point x="24" y="180" type="line"/>
      <point x="53" y="167" type="line"/>
      <point x="74" y="175"/>
      <point x="94" y="178"/>
      <point x="119" y="178" type="curve" smooth="yes"/>
      <point x="167" y="178"/>
      <point x="195" y="155"/>
      <point x="195" y="115" type="curve" smooth="yes"/>
      <point x="195" y="71"/>
      <point x="156" y="38"/>
      <point x="107" y="38" type="curve"/>
      <point x="73" y="38"/>
      <point x="43" y="51"/>
      <point x="11" y="79" type="curve"/>
      <point x="-18" y="42" type="line"/>
      <point x="14" y="11"/>
      <point x="55" y="-4"/>
      <point x="106" y="-4" type="curve"/>
      <point x="184" y="-4"/>
      <point x="247" y="51"/>
      <point x="247" y="121" type="curve" smooth="yes"/>
      <point x="247" y="178"/>
      <point x="201" y="216"/>
      <point x="132" y="216" type="curve" smooth="yes"/>
      <point x="113" y="216"/>
      <point x="94" y="213"/>
      <point x="74" y="207" type="curve"/>
      <point x="100" y="308" type="line"/>
      <point x="269" y="308" type="line"/>
      <point x="278" y="350" type="line"/>
      <point x="66" y="350" type="line"/>
    </contour>
  </outline>
</glyph>
<glyph name="uni2086" format="2">
  <advance width="323"/>
  <unicode hex="2086"/>
  <outline>
    <contour>
      <point x="132" y="-4" type="curve"/>
      <point x="206" y="-4"/>
      <point x="267" y="53"/>
      <point x="267" y="121" type="curve" smooth="yes"/>
      <point x="267" y="175"/>
      <point x="224" y="214"/>
      <point x="165" y="214" type="curve"/>
      <point x="128" y="214"/>
      <point x="90" y="199"/>
      <point x="62" y="173" type="curve"/>
      <point x="77" y="252"/>
      <point x="130" y="309"/>
      <point x="195" y="309" type="curve"/>
      <point x="217" y="309"/>
      <point x="242" y="300"/>
      <point x="268" y="285" type="curve"/>
      <point x="295" y="325" type="line"/>
      <point x="265" y="345"/>
      <point x="237" y="353"/>
      <point x="202" y="353" type="curve"/>
      <point x="96" y="353"/>
      <point x="9" y="253"/>
      <point x="9" y="132" type="curve" smooth="yes"/>
      <point x="9" y="49"/>
      <point x="58" y="-4"/>
    </contour>
    <contour>
      <point x="58" y="130" type="curve" smooth="yes"/>
      <point x="58" y="141" type="line"/>
      <point x="84" y="164"/>
      <point x="114" y="177"/>
      <point x="145" y="177" type="curve"/>
      <point x="188" y="177"/>
      <point x="218" y="151"/>
      <point x="218" y="114" type="curve" smooth="yes"/>
      <point x="218" y="73"/>
      <point x="181" y="40"/>
      <point x="138" y="40" type="curve"/>
      <point x="89" y="40"/>
      <point x="58" y="74"/>
    </contour>
  </outline>
</glyph>
<glyph name="uni2087" format="2">
  <advance width="293"/>
  <unicode hex="2087"/>
  <outline>
    <contour>
      <point x="1" y="0" type="line"/>
      <point x="63" y="0" type="line"/>
      <point x="294" y="311" type="line"/>
      <point x="301" y="350" type="line"/>
      <point x="39" y="350" type="line"/>
      <point x="29" y="305" type="line"/>
      <point x="234" y="305" type="line"/>
    </contour>
  </outline>
</glyph>
<glyph name="Euro" format="2">
  <advance width="713"/>
  <unicode hex="20AC"/>
  <outline>
    <contour>
      <point x="441" y="310" type="line"/>
      <point x="215" y="310" type="line"/>
      <point x="216" y="339"/>
      <point x="220" y="366"/>
      <point x="227" y="393" type="curve"/>
      <point x="486" y="393" type="line"/>
      <point x="515" y="443" type="line"/>
      <point x="242" y="443" type="line"/>
      <point x="287" y="563"/>
      <point x="382" y="647"/>
      <point x="491" y="647" type="curve"/>
      <point x="568" y="647"/>
      <point x="634" y="603"/>
      <point x="668" y="529" type="curve"/>
      <point x="726" y="564" type="line"/>
      <point x="682" y="657"/>
      <point x="602" y="709"/>
      <point x="499" y="709" type="curve" smooth="yes"/>
      <point x="352" y="709"/>
      <point x="225" y="599"/>
      <point x="172" y="443" type="curve"/>
      <point x="84" y="443" type="line"/>
      <point x="72" y="393" type="line"/>
      <point x="158" y="393" type="line"/>
      <point x="152" y="366"/>
      <point x="148" y="339"/>
      <point x="147" y="310" type="curve"/>
      <point x="55" y="310" type="line"/>
      <point x="44" y="259" type="line"/>
      <point x="147" y="259" type="line"/>
      <point x="156" y="96"/>
      <point x="255" y="-10"/>
      <point x="403" y="-10" type="curve" smooth="yes"/>
      <point x="483" y="-10"/>
      <point x="560" y="27"/>
      <point x="627" y="97" type="curve"/>
      <point x="585" y="139" type="line"/>
      <point x="531" y="83"/>
      <point x="469" y="54"/>
      <point x="408" y="54" type="curve" smooth="yes"/>
      <point x="298" y="54"/>
      <point x="224" y="133"/>
      <point x="215" y="259" type="curve"/>
      <point x="414" y="259" type="line"/>
    </contour>
  </outline>
</glyph>
<glyph name="minus" format="2">
  <advance width="519"/>
  <unicode hex="2212"/>
  <outline>
    <contour>
      <point x="482" y="389" type="line"/>
      <point x="95" y="389" type="line"/>
      <point x="82" y="327" type="line"/>
      <point x="469" y="327" type="line"/>
    </contour>
  </outline>
</glyph>
<glyph name="notequal" format="2">
  <advance width="519"/>
  <unicode hex="2260"/>
  <outline>
    <contour>
      <point x="50" y="123" type="line"/>
      <point x="110" y="123" type="line"/>
      <point x="216" y="246" type="line"/>
      <point x="452" y="246" type="line"/>
      <point x="465" y="306" type="line"/>
      <point x="268" y="306" type="line"/>
      <point x="356" y="407" type="line"/>
      <point x="486" y="407" type="line"/>
      <point x="499" y="467" type="line"/>
      <point x="407" y="467" type="line"/>
      <point x="513" y="589" type="line"/>
      <point x="454" y="589" type="line"/>
      <point x="348" y="467" type="line"/>
      <point x="112" y="467" type="line"/>
      <point x="99" y="407" type="line"/>
      <point x="296" y="407" type="line"/>
      <point x="209" y="306" type="line"/>
      <point x="78" y="306" type="line"/>
      <point x="64" y="246" type="line"/>
      <point x="157" y="246" type="line"/>
    </contour>
  </outline>
</glyph>
<glyph name="commaaccent" format="2">
  <advance width="244"/>
  <anchor x="63" y="0" name="_bottom"/>
  <outline>
    <contour>
      <point x="24" y="-87" type="line"/>
      <point x="-63" y="-274" type="line"/>
      <point x="-10" y="-274" type="line"/>
      <point x="97" y="-87" type="line"/>
    </contour>
  </outline>
</glyph>
<glyph name="g.alt" format="2">
  <advance width="526"/>
  <note>
Version created Sun Jan 13 16:53:00 2019
</note>
  <anchor x="294" y="488" name="top"/>
  <outline>
    <contour>
      <point x="75" y="299" type="curve" smooth="yes"/>
      <point x="75" y="243"/>
      <point x="104" y="196"/>
      <point x="149" y="167" type="curve"/>
      <point x="88" y="155"/>
      <point x="43" y="116"/>
      <point x="43" y="70" type="curve"/>
      <point x="43" y="42"/>
      <point x="59" y="20"/>
      <point x="88" y="6" type="curve"/>
      <point x="11" y="-13"/>
      <point x="-30" y="-47"/>
      <point x="-30" y="-92" type="curve" smooth="yes"/>
      <point x="-30" y="-163"/>
      <point x="64" y="-208"/>
      <point x="210" y="-208" type="curve" smooth="yes"/>
      <point x="355" y="-208"/>
      <point x="449" y="-148"/>
      <point x="449" y="-56" type="curve" smooth="yes"/>
      <point x="449" y="-7"/>
      <point x="413" y="23"/>
      <point x="342" y="33" type="curve" smooth="yes"/>
      <point x="161" y="57" type="line" smooth="yes"/>
      <point x="127" y="61"/>
      <point x="110" y="74"/>
      <point x="110" y="95" type="curve" smooth="yes"/>
      <point x="110" y="122"/>
      <point x="139" y="144"/>
      <point x="181" y="150" type="curve"/>
      <point x="204" y="142"/>
      <point x="229" y="137"/>
      <point x="256" y="137" type="curve" smooth="yes"/>
      <point x="376" y="137"/>
      <point x="472" y="226"/>
      <point x="472" y="335" type="curve" smooth="yes"/>
      <point x="472" y="362"/>
      <point x="465" y="386"/>
      <point x="453" y="408" type="curve"/>
      <point x="465" y="435"/>
      <point x="491" y="453"/>
      <point x="523" y="453" type="curve" smooth="yes"/>
      <point x="540" y="453"/>
      <point x="556" y="450"/>
      <point x="569" y="446" type="curve"/>
      <point x="583" y="515" type="line"/>
      <point x="572" y="518"/>
      <point x="558" y="520"/>
      <point x="547" y="520" type="curve" smooth="yes"/>
      <point x="494" y="520"/>
      <point x="454" y="487"/>
      <point x="437" y="431" type="curve"/>
      <point x="405" y="470"/>
      <point x="353" y="495"/>
      <point x="292" y="495" type="curve" smooth="yes"/>
      <point x="176" y="495"/>
      <point x="75" y="403"/>
    </contour>
    <contour>
      <point x="402" y="328" type="curve" smooth="yes"/>
      <point x="402" y="254"/>
      <point x="338" y="193"/>
      <point x="261" y="193" type="curve" smooth="yes"/>
      <point x="194" y="193"/>
      <point x="145" y="239"/>
      <point x="145" y="302" type="curve" smooth="yes"/>
      <point x="145" y="376"/>
      <point x="211" y="439"/>
      <point x="288" y="439" type="curve" smooth="yes"/>
      <point x="354" y="439"/>
      <point x="402" y="391"/>
    </contour>
    <contour>
      <point x="40" y="-78" type="curve"/>
      <point x="40" y="-45"/>
      <point x="72" y="-19"/>
      <point x="124" y="-6" type="curve"/>
      <point x="131" y="-8"/>
      <point x="138" y="-9"/>
      <point x="145" y="-10" type="curve" smooth="yes"/>
      <point x="322" y="-31" type="line" smooth="yes"/>
      <point x="356" y="-36"/>
      <point x="374" y="-52"/>
      <point x="374" y="-75" type="curve" smooth="yes"/>
      <point x="374" y="-122"/>
      <point x="309" y="-155"/>
      <point x="214" y="-155" type="curve" smooth="yes"/>
      <point x="107" y="-155"/>
      <point x="40" y="-125"/>
    </contour>
  </outline>
</glyph>
<glyph name="reversequotedblleft" format="2">
  <advance width="375"/>
  <outline>
    <contour>
      <point x="161" y="750" type="line"/>
      <point x="83" y="750" type="line"/>
      <point x="149" y="519" type="line"/>
      <point x="205" y="519" type="line"/>
    </contour>
    <contour>
      <point x="322" y="750" type="line"/>
      <point x="244" y="750" type="line"/>
      <point x="310" y="519" type="line"/>
      <point x="366" y="519" type="line"/>
    </contour>
  </outline>
</glyph>
